<?xml version="1.0" encoding="utf-8"?>
<!-- Generator: Adobe Illustrator 25.2.3, SVG Export Plug-In . SVG Version: 6.00 Build 0)  -->
<svg version="1.1" id="gr_x5F_icon27_x5F_vite" xmlns="http://www.w3.org/2000/svg" xmlns:xlink="http://www.w3.org/1999/xlink"
	 x="0px" y="0px" viewBox="0 0 250 250" enable-background="new 0 0 250 250" xml:space="preserve">
<path id="gr_7_" fill="#F3BA48" d="M237.666,172.701c0,9.543-6.757,21.247-15.022,26.019l-82.62,47.701
	c-8.263,4.772-21.785,4.772-30.044,0L27.355,198.72c-8.263-4.772-15.022-16.476-15.022-26.019V77.299
	c0-9.543,6.759-21.248,15.022-26.019l82.624-47.702c8.259-4.771,21.781-4.771,30.044,0l82.62,47.702
	c8.266,4.771,15.022,16.476,15.022,26.019V172.701z"/>
<path fill="#FFFFFF" d="M188.889,85.139c-1.445-2.463-4.103-3.993-6.936-3.993c-0.489,0-0.983,0.045-1.469,0.133l-24.737,4.509
	l2.746-9.521c0.574-1.991,0.189-4.082-1.055-5.736c-1.229-1.633-3.178-2.608-5.214-2.608c0,0,0,0,0,0
	c-0.422,0-0.847,0.041-1.263,0.123l-41.716,8.174c-2.923,0.573-5.088,3.05-5.264,6.023l-0.304,5.128L69.49,81.262
	c-0.477-0.085-0.963-0.129-1.442-0.129c-2.847,0-5.512,1.541-6.953,4.022c-1.457,2.509-1.468,5.514-0.028,8.039l57.488,100.812
	c1.432,2.51,4.116,4.069,7.005,4.069c2.917,0,5.614-1.582,7.038-4.128l56.37-100.8C190.379,90.624,190.35,87.63,188.889,85.139z
	 M145.886,101.931c-0.289,1.001,0.478,1.957,1.465,1.957c0.097,0,0.196-0.009,0.297-0.029l11.955-2.307
	c0.102-0.02,0.203-0.029,0.301-0.029c1.097,0,1.881,1.177,1.359,2.219L127.27,171.58l-0.615,0.951
	c-0.319,0.493-0.792,0.706-1.26,0.706c-0.884,0-1.751-0.763-1.526-1.848l5.484-26.541c0.203-0.982-0.565-1.843-1.495-1.843
	c-0.147,0-0.299,0.022-0.451,0.068l-7.173,2.179c-0.152,0.046-0.303,0.068-0.451,0.068c-0.928,0-1.696-0.859-1.495-1.84
	l3.451-16.897c0.199-0.974-0.559-1.84-1.495-1.84c-0.115,0-0.232,0.013-0.35,0.04l-11.614,2.68c-0.117,0.027-0.234,0.04-0.348,0.04
	c-0.855,0-1.579-0.723-1.525-1.623l2.566-43.339c0.031-0.523,0.324-0.981,0.758-1.233c0.145-0.084,0.305-0.146,0.476-0.179
	l41.716-8.174c0.102-0.02,0.203-0.03,0.302-0.03c0.493,0,0.932,0.239,1.211,0.603c0.07,0.091,0.13,0.19,0.178,0.295
	c0.096,0.21,0.146,0.444,0.137,0.688c-0.005,0.122-0.024,0.246-0.06,0.372L145.886,101.931z M184.603,90.708l-56.37,100.799
	c-0.584,1.045-1.629,1.568-2.674,1.568c-1.036,0-2.073-0.515-2.661-1.546L65.41,90.718c-1.191-2.088,0.372-4.584,2.638-4.584
	c0.183,0,0.371,0.016,0.563,0.051l35.76,6.392l-1.958,33.068c-0.09,1.515,0.455,3.017,1.495,4.12c1.042,1.106,2.508,1.74,4.023,1.74
	c0.418,0,0.838-0.048,1.247-0.142l7.873-1.817l-2.682,13.135c-0.334,1.635,0.079,3.312,1.132,4.602
	c1.057,1.295,2.618,2.038,4.282,2.038c0.545,0,1.088-0.081,1.613-0.24l3.198-0.972l-4.643,22.472c-0.34,1.643,0.063,3.32,1.106,4.6
	c1.049,1.288,2.671,2.058,4.338,2.058c1.865,0,3.592-0.947,4.618-2.533l0.615-0.951c0.08-0.123,0.152-0.25,0.218-0.381
	l33.992-67.837c0.866-1.727,0.777-3.739-0.236-5.381c-1.017-1.647-2.773-2.631-4.698-2.631c-0.354,0-0.71,0.034-1.06,0.102
	l-7.999,1.544l2.255-7.816l28.28-5.154c0.195-0.036,0.386-0.052,0.573-0.052C184.206,86.146,185.771,88.619,184.603,90.708z"/>
</svg>
